<?xml version="1.0" encoding="UTF-8"?><svg id="b" xmlns="http://www.w3.org/2000/svg" width="350" height="100" viewBox="0 0 350 100"><path d="m109.13,54.42h0c-.95-1.18-1.68-1.95-2.22-2.34-.14-.1-.28-.2-.44-.29.55-.23,1.05-.48,1.48-.74,1.84-1.11,3.3-2.58,4.35-4.37,1.06-1.8,1.6-3.96,1.6-6.4,0-2.81-.7-5.24-2.09-7.23-1.4-2-3.26-3.39-5.54-4.13-2.15-.69-5.24-1.05-9.19-1.05h-21.96v42.72h14.95v-16.34c.83.02,1.55.25,2.2.7.28.2.9.83,1.89,2.69l7,12.95h16.81l-6.94-13.44c-.34-.67-.95-1.56-1.88-2.72Zm-19.07-15.97h4.24c2.57,0,3.52.47,3.85.75.55.46.8,1.11.8,2.05,0,.61-.17,1.12-.53,1.59-.34.44-.76.7-1.31.81-2.01.45-2.76.52-3.03.52h-4.02v-5.73Z" fill="navy" stroke-width="0"/><polygon points="134.9 54.19 153.51 54.19 153.51 43.9 134.9 43.9 134.9 40.15 154.96 40.15 154.96 29.49 120.52 29.49 120.52 70.59 155.54 70.59 155.54 59.42 134.9 59.42 134.9 54.19" fill="navy" stroke-width="0"/><path d="m189.53,46.53c-2.66-1.38-5.69-2.2-8.52-2.88-2.03-.49-4.14-.8-6.11-1.51-.38-.14-.77-.3-1.04-.61-.83-.95-.45-2.5.55-3.15.65-.42,1.45-.54,2.23-.55.71,0,1.44.08,2.11.33,1.14.41,1.94,1.31,2.51,2.35.35.64.78,1.64.78,1.64l13.75-.19-.17-.98c-.56-4.55-2.35-7.94-5.34-10.07-2.9-2.06-7.09-3.11-12.46-3.11-4.34,0-7.83.57-10.38,1.69-2.62,1.15-4.62,2.78-5.95,4.82-1.33,2.05-2.01,4.28-2.01,6.61,0,3.55,1.33,7.21,3.95,9.49,2.47,2.17,6.58,3.92,12.21,5.19,1.18.26,2.35.55,3.5.94,1.35.46,3.6,1.46,3.28,3.29-.09.52-.47.96-.91,1.26-1.79,1.2-5.05.86-6.79-.3-1.75-1.16-2.32-2.29-3.05-4.13l-.11-.37-13.7.14s.11,1.33.11,1.33c.36,4.29,2.04,7.67,5.36,10.51,4.01,3.42,9.49,3.93,14.56,3.93,4.05,0,7.47-.61,10.17-1.8,2.77-1.22,4.97-3.05,6.52-5.44,1.56-2.39,2.52-5.01,2.34-7.9-.15-2.4-1.04-4.74-2.53-6.63-1.32-1.68-3.01-2.93-4.88-3.9Z" fill="navy" stroke-width="0"/><path d="m224.72,54.59c0,1.88-.47,3.32-1.4,4.28-.94.98-2.25,1.46-3.99,1.46s-3.07-.48-4.02-1.48c-.95-1-1.41-2.39-1.41-4.26v-25.12h-14.33v24.55c0,2.09.39,4.49,1.16,7.16.5,1.75,1.44,3.46,2.79,5.09,1.33,1.61,2.83,2.88,4.46,3.76,1.62.88,3.63,1.47,6,1.77,2.27.28,4.39.42,6.3.42,3.38,0,6.34-.48,8.78-1.42,1.83-.7,3.58-1.92,5.22-3.62,1.64-1.71,2.87-3.73,3.64-6.01.75-2.23,1.14-4.64,1.14-7.14v-24.55h-14.33v25.12Z" fill="navy" stroke-width="0"/><polygon points="256.22 29.49 241.87 29.49 241.87 70.59 274.89 70.59 274.89 58.66 256.22 58.66 256.22 29.49" fill="navy" stroke-width="0"/></svg>